<?xml version="1.0" encoding="UTF-8"?>
<svg id="Noir-avec-nom" xmlns="http://www.w3.org/2000/svg" width="200" height="80" viewBox="0 0 1657.17 398.97">
  <path id="_" data-name="!" d="m298,315.29c-8.08,0-14.28-2.81-18.61-8.43-4.33-5.62-5.62-12.88-3.88-21.79,1.74-8.91,5.86-16.17,12.38-21.79,6.51-5.62,13.81-8.43,21.9-8.43s13.94,2.81,18.16,8.43c4.22,5.62,5.47,12.88,3.73,21.79-1.74,8.91-5.82,16.18-12.23,21.79-6.42,5.62-13.57,8.43-21.45,8.43Zm-4.07-77.63l29.17-149.52h37.84l-29.17,149.52h-37.84Z" style="fill: #fff;"/>
  <path id="C" d="m281.2,106.11c-10.98-14.95-29.18-22.43-54.61-22.43-.72,0-1.43.03-2.14.04-.34-.01-.67-.04-1.02-.04h-71.38c-11.59,0-20.99,7.4-20.99,16.53s8.96,16.15,20.17,16.49c-.03.03-.06.06-.08.09,8.57.62,15.33,7.74,15.33,16.47s-7.4,16.53-16.53,16.53h-51.19c-9.13,0-16.53,7.4-16.53,16.53s7.4,16.53,16.53,16.53h27.96c9.13,0,16.53,7.4,16.53,16.53s-7.4,16.53-16.53,16.53h-20.98c-9.13,0-16.53,7.4-16.53,16.53s7.4,16.53,16.53,16.53h19.18c9.13,0,16.53,7.4,16.53,16.53s-7.4,16.53-16.53,16.53h-7.8c-12.6,0-22.82,7.45-22.82,16.65s10.21,16.65,22.82,16.65h58.28c.71,0,1.42-.03,2.11-.07,1.29.04,2.58.07,3.9.07,25.42,0,46.54-7.48,63.36-22.43,16.81-14.95,27.76-35.47,32.85-61.56l.87-4.45h-38.43l-1.12,5.73c-2.52,12.94-8.02,23.7-16.5,32.29-8.48,8.59-19.71,12.88-33.7,12.88s-23.74-4.61-29.82-13.84c-6.09-9.22-7.62-21.58-4.6-37.06l10.67-54.72c3.06-15.69,9.42-28.1,19.09-37.22,9.66-9.12,21.39-13.68,35.19-13.68s23.56,4.25,28.71,12.73c5.14,8.49,6.43,19.3,3.87,32.45l-.62,3.18h38.43l.37-1.91c5.09-26.09,2.15-46.61-8.83-61.56Z" style="fill: #fff;"/>
  <text transform="translate(507.5 254.84) scale(.98) skewX(-11.55)" style="fill: #fff; font-family: SpaceGrotesk-Bold, &apos;Space Grotesk&apos;; font-size: 159.22px; font-weight: 700;"><tspan x="0" y="0">ooHop!</tspan></text>
  <path id="C-2" data-name="C" d="m513.04,156.29c-5.17-7.04-13.75-10.57-25.73-10.57-.34,0-.67.01-1.01.02-.16,0-.32-.02-.48-.02h-33.63c-5.46,0-9.89,3.49-9.89,7.79s4.22,7.61,9.5,7.77c-.01.01-.03.03-.04.04,4.04.29,7.22,3.65,7.22,7.76s-3.49,7.79-7.79,7.79h-24.12c-4.3,0-7.79,3.49-7.79,7.79s3.49,7.79,7.79,7.79h13.17c4.3,0,7.79,3.49,7.79,7.79s-3.49,7.79-7.79,7.79h-9.88c-4.3,0-7.79,3.49-7.79,7.79s3.49,7.79,7.79,7.79h9.04c4.3,0,7.79,3.49,7.79,7.79s-3.49,7.79-7.79,7.79h-3.68c-5.94,0-10.75,3.51-10.75,7.84s4.81,7.84,10.75,7.84h27.46c.34,0,.67-.01,1-.03.61.02,1.21.04,1.84.04,11.98,0,21.93-3.52,29.85-10.57,7.92-7.05,13.08-16.71,15.48-29l.41-2.1h-18.11l-.53,2.7c-1.19,6.1-3.78,11.17-7.77,15.21-3.99,4.05-9.29,6.07-15.88,6.07s-11.18-2.17-14.05-6.52c-2.87-4.35-3.59-10.17-2.17-17.46l5.03-25.78c1.44-7.39,4.44-13.24,8.99-17.54,4.55-4.3,10.08-6.45,16.58-6.45s11.1,2,13.53,6c2.42,4,3.03,9.09,1.82,15.29l-.29,1.5h18.11l.18-.9c2.4-12.29,1.01-21.96-4.16-29Z" style="fill: #fff;"/>
</svg>